<?xml version="1.0" encoding="utf-8"?>
<!-- Generator: Adobe Illustrator 17.1.0, SVG Export Plug-In . SVG Version: 6.00 Build 0)  -->
<!DOCTYPE svg PUBLIC "-//W3C//DTD SVG 1.1//EN" "http://www.w3.org/Graphics/SVG/1.1/DTD/svg11.dtd">
<svg version="1.1" id="Layer_1" xmlns="http://www.w3.org/2000/svg" xmlns:xlink="http://www.w3.org/1999/xlink" x="0px" y="0px"
	 viewBox="0 0 100 35.6" enable-background="new 0 0 100 35.6" xml:space="preserve">
<g>
	<g>
		<path fill="#FFFFFF" d="M20.2,1.1c-9.1,0-16.5,7.4-16.5,16.5c0,9.1,7.4,16.5,16.5,16.5c9.1,0,16.5-7.4,16.5-16.5
			C36.7,8.4,29.3,1.1,20.2,1.1z M20.2,33.8c-9,0-16.2-7.3-16.2-16.2c0-9,7.3-16.2,16.2-16.2c8.9,0,16.2,7.3,16.2,16.2
			C36.5,26.5,29.2,33.8,20.2,33.8z"/>
	</g>
	<path fill="#FFFFFF" d="M30.2,23.6C27.1,14.7,22.7,7.1,22.1,6c5.5,0.9,9.8,5.7,9.8,11.5C31.9,19.7,31.2,21.8,30.2,23.6 M13.7,27.1
		c0.2-0.7,0.8-2.3,1.4-4.3h9.9c0.8,2.2,1.3,3.9,1.5,4.4c-1.8,1.2-4,1.9-6.4,1.9C17.8,29.1,15.6,28.4,13.7,27.1 M18.1,6.1L18.1,6.1
		c0,0.1-4.6,8-7.8,17.4c-1-1.7-1.6-3.8-1.6-5.9C8.6,11.8,12.7,7.1,18.1,6.1 M20.1,9.2c1.1,2.8,2.6,6.7,3.8,10.2h-7.5
		C17.6,15.9,19,11.9,20.1,9.2 M20.2,2.8c-8.1,0-14.8,6.6-14.8,14.8c0,8.1,6.6,14.8,14.8,14.8c8.1,0,14.8-6.6,14.8-14.8
		C35,9.4,28.4,2.8,20.2,2.8"/>
	<path fill="#FFFFFF" d="M49.3,23.1V20h-1c-1.3,0-2.3,0.2-3,0.7c-0.7,0.5-1,1.1-1,1.8c0,0.6,0.2,1.1,0.6,1.4s0.9,0.6,1.4,0.6
		c0.5,0,1-0.1,1.5-0.4C48.3,23.9,48.8,23.6,49.3,23.1 M49.3,25.3c-0.6,0.6-1.1,1-1.5,1.2c-0.4,0.2-0.9,0.4-1.4,0.6
		c-0.5,0.1-1,0.2-1.5,0.2c-1.4,0-2.4-0.4-3.3-1.3c-0.8-0.8-1.2-1.9-1.2-3.1c0-1.5,0.6-2.7,1.8-3.7c1.2-1,3.2-1.5,6-1.5h1.1v-1.4
		c0-0.9-0.3-1.6-0.8-1.9c-0.5-0.3-1.2-0.5-2-0.5c-1.6,0-3.2,0.5-4.8,1.4v-2.8c1.9-0.7,3.7-1.1,5.5-1.1c1.1,0,2.1,0.2,3,0.5
		c0.9,0.3,1.6,0.8,2.1,1.4c0.5,0.6,0.8,1.6,0.8,2.9v6.7c0,0.8,0.1,1.3,0.4,1.5c0.3,0.2,0.5,0.3,0.8,0.3c0.1,0,0.3,0,0.6-0.1l0.1,2.3
		c-0.9,0.3-1.6,0.4-2.3,0.4c-0.8,0-1.4-0.1-2-0.4c-0.5-0.3-1-0.8-1.3-1.6H49.3z"/>
	<path fill="#FFFFFF" d="M69.6,26.6c-1.7,0.5-3.2,0.7-4.7,0.7c-2.6,0-4.5-0.8-5.8-2.3c-1.3-1.5-1.9-3.4-1.9-5.7
		c0-2.3,0.7-4.3,2.1-5.7c1.4-1.5,3.4-2.2,6-2.2c1.2,0,2.6,0.2,4.2,0.6v3c-1.7-0.5-3-0.8-3.9-0.8c-1.4,0-2.4,0.5-3.1,1.6
		c-0.6,1.1-1,2.3-1,3.6c0,1,0.2,1.9,0.6,2.8c0.4,0.9,0.9,1.5,1.6,1.9c0.7,0.4,1.4,0.6,2.2,0.6c1.2,0,2.4-0.3,3.7-0.8V26.6z"/>
	<path fill="#FFFFFF" d="M73.2,26.5v-3c2,0.8,3.8,1.3,5.2,1.3c0.8,0,1.4-0.2,1.8-0.5c0.5-0.3,0.7-0.7,0.7-1.2c0-0.4-0.2-0.8-0.5-1.1
		c-0.3-0.3-0.9-0.6-1.6-0.8l-1.4-0.6c-1.4-0.6-2.5-1.2-3.2-1.9c-0.7-0.7-1-1.6-1-2.7c0-1.3,0.5-2.4,1.5-3.3c1-0.9,2.6-1.3,4.7-1.3
		c1.2,0,2.7,0.2,4.4,0.5v2.9c-1.6-0.6-3-0.9-4.1-0.9c-0.8,0-1.5,0.1-1.9,0.4c-0.4,0.3-0.6,0.7-0.6,1.1c0,0.4,0.1,0.7,0.4,1
		c0.3,0.3,0.8,0.6,1.5,0.8l1.2,0.5c2,0.7,3.3,1.5,3.9,2.2c0.6,0.7,0.9,1.6,0.9,2.5c0,1.3-0.6,2.4-1.7,3.4c-1.1,1-2.7,1.4-4.8,1.4
		C76.9,27.3,75.1,27,73.2,26.5"/>
	<path fill="#FFFFFF" d="M87.2,16.1v-0.2c0.2-0.1,0.3-0.3,0.3-0.6v-0.1h-0.3v-0.7h0.7v0.6C87.9,15.7,87.6,16,87.2,16.1"/>
	<path fill="#FFFFFF" d="M89,15.2h0.5v-3H89V15.2z M89,11.6h0.5v-0.5H89V11.6z"/>
	<path fill="#FFFFFF" d="M90.6,15.2v-3h0.5v0.6c0.3-0.4,0.6-0.6,1.1-0.6c0.3,0,0.5,0.1,0.6,0.2c0.2,0.2,0.2,0.4,0.2,0.7v2.2h-0.5v-2
		c0-0.2,0-0.4-0.1-0.5c-0.1-0.1-0.2-0.1-0.3-0.1c-0.3,0-0.7,0.2-0.9,0.7v2H90.6z"/>
	<path fill="#FFFFFF" d="M95.3,15.3c-0.4,0-0.7-0.1-1-0.5c-0.3-0.3-0.4-0.7-0.4-1.1c0-0.5,0.1-0.9,0.4-1.1c0.3-0.3,0.6-0.4,1.1-0.4
		c0.2,0,0.5,0,0.8,0.1v0.5c-0.3-0.1-0.6-0.1-0.8-0.1c-0.3,0-0.5,0.1-0.7,0.3s-0.3,0.5-0.3,0.8c0,0.3,0.1,0.6,0.3,0.8
		c0.2,0.2,0.4,0.3,0.7,0.3c0.2,0,0.5-0.1,0.8-0.2v0.5C95.9,15.2,95.6,15.3,95.3,15.3"/>
</g>
</svg>
